<svg width="280" height="280" viewBox="0 0 280 280" fill="none" xmlns="http://www.w3.org/2000/svg">
<path d="M153.343 273.351V260.051H179.944V246.663H206.631V233.363H233.319V219.976H246.618V206.676H260.006V73.3259H246.618V60.0259H233.319V73.3259H206.631V86.7134H179.944V100.013H153.343V113.313H126.656V126.701H140V260.051H126.7V273.351H153.343ZM206.631 113.313H233.319V126.701H206.631V113.313ZM166.644 193.376H193.375V219.976H166.687L166.644 193.376Z" fill="#1B1010"/>
<path d="M233.319 46.7258H206.631V60.0258H233.319V46.7258Z" fill="#1B1010"/>
<path d="M206.631 33.3379H179.944V46.7254H206.631V33.3379Z" fill="#1B1010"/>
<path d="M179.943 20.0378H153.343V33.3378H179.943V20.0378Z" fill="#1B1010"/>
<path d="M153.343 60.0259H126.656V86.7134H153.343V60.0259Z" fill="#1B1010"/>
<path d="M153.343 6.65015H126.656V20.0376H153.343V6.65015Z" fill="#1B1010"/>
<path d="M126.656 246.662H99.9686V260.05H126.656V246.662Z" fill="#1B1010"/>
<path d="M126.656 100.012H99.9686V113.312H126.656V100.012Z" fill="#1B1010"/>
<path d="M126.656 20.0378H99.9686V33.3378H126.656V20.0378Z" fill="#1B1010"/>
<path d="M126.656 193.376H99.9686V219.976H126.656V193.376Z" fill="#1B1010"/>
<path d="M126.656 140H99.9686V166.687H126.656V140Z" fill="#1B1010"/>
<path d="M99.9688 233.362H73.2812V246.662H99.9688V233.362Z" fill="#1B1010"/>
<path d="M99.9688 86.7117H73.2812V100.012H99.9688V86.7117Z" fill="#1B1010"/>
<path d="M99.9688 33.3379H73.2812V46.7254H99.9688V33.3379Z" fill="#1B1010"/>
<path d="M73.2809 219.974H46.6809V233.362H73.2809V219.974Z" fill="#1B1010"/>
<path d="M73.2809 73.3262H46.6809V86.7137H73.2809V73.3262Z" fill="#1B1010"/>
<path d="M73.2809 46.7258H46.6809V60.0258H73.2809V46.7258Z" fill="#1B1010"/>
<path d="M73.2809 166.688H46.6809V193.375H73.2809V166.688Z" fill="#1B1010"/>
<path d="M73.2809 113.312H46.6809V140H73.2809V113.312Z" fill="#1B1010"/>
<path d="M46.6812 206.676H33.2937V219.976H46.6812V206.676Z" fill="#1B1010"/>
<path d="M46.6812 60.0259H33.2937V73.3259H46.6812V60.0259Z" fill="#1B1010"/>
<path d="M33.2935 73.3262H19.9935V206.676H33.2935V73.3262Z" fill="#1B1010"/>
</svg>
