<svg width="280" height="280" viewBox="0 0 280 280" fill="none" xmlns="http://www.w3.org/2000/svg">
<g clip-path="url(#clip0_58_206)">
<path d="M266.612 39.9875H253.313V26.6875H239.925V13.3H226.625V0H26.6V53.375H39.9875V66.675H53.2875V53.375H213.325V66.675H226.625V200.025H213.325V213.325H199.938V226.625H26.6V213.325H13.3V226.625H0V280H13.3V240.013H186.637V280H280V53.375H266.612V39.9875ZM53.2875 39.9875H39.9875V13.3H53.2875V39.9875ZM79.975 39.9875H66.5875V13.3H79.975V39.9875ZM199.938 39.9875H93.275V13.3H199.938V39.9875ZM266.612 133.35H253.313V66.675H239.925V53.375H226.625V39.9875H213.325V26.6875H226.625V39.9875H239.925V53.375H253.313V66.675H266.612V133.35Z" fill="#1B1010"/>
<path d="M186.637 133.35H173.25V146.65H186.637V133.35Z" fill="#1B1010"/>
<path d="M186.638 200.026H146.65V213.326H186.638V200.026Z" fill="#1B1010"/>
<path d="M173.25 106.662H159.95V119.962H173.25V106.662Z" fill="#1B1010"/>
<path d="M173.25 280V253.312H133.262V280H146.65V266.7H159.95V280H173.25Z" fill="#1B1010"/>
<path d="M173.25 146.65H119.963V160.038H173.25V146.65Z" fill="#1B1010"/>
<path d="M133.263 106.662H119.963V119.962H133.263V106.662Z" fill="#1B1010"/>
<path d="M119.963 133.35H106.663V146.65H119.963V133.35Z" fill="#1B1010"/>
<path d="M106.662 200.026H93.2748V213.326H106.662V200.026Z" fill="#1B1010"/>
<path d="M213.325 186.637V79.9741H79.9751V186.637H213.325ZM93.2751 93.3616H199.938V173.337H93.2751V93.3616Z" fill="#1B1010"/>
<path d="M79.9749 200.026H66.5874V213.326H79.9749V200.026Z" fill="#1B1010"/>
<path d="M66.5877 66.676H53.2877V186.639H66.5877V66.676Z" fill="#1B1010"/>
<path d="M53.2875 186.638H39.9875V200.026H53.2875V186.638Z" fill="#1B1010"/>
<path d="M39.9873 200.026H26.5998V213.326H39.9873V200.026Z" fill="#1B1010"/>
</g>
<defs>
<clipPath id="clip0_58_206">
<rect width="280" height="280" fill="white"/>
</clipPath>
</defs>
</svg>
