<svg width="280" height="280" viewBox="0 0 280 280" fill="none" xmlns="http://www.w3.org/2000/svg">
<path d="M266.656 66.6758H253.269V106.663H266.656V66.6758Z" fill="#1B1010"/>
<path d="M253.269 106.662H239.969V119.962H253.269V106.662Z" fill="#1B1010"/>
<path d="M253.269 53.376H213.281V66.676H253.269V53.376Z" fill="#1B1010"/>
<path d="M199.981 119.962V133.35H213.281V213.325H199.981V266.7H186.594V146.65H199.981V133.35H146.606V146.65H159.994V266.7H133.306V133.35H120.006V119.962H93.3188V133.35H106.619V266.7H93.3188V213.325H79.9313V146.65H93.3188V133.35H66.6313V106.662H39.9438V119.962H53.3313V213.325H66.6313V266.7H79.9313V280H213.281V266.7H226.669V213.325H239.969V119.962H199.981Z" fill="#1B1010"/>
<path d="M226.669 93.3618H213.281V106.662H226.669V93.3618Z" fill="#1B1010"/>
<path d="M213.281 66.6758H199.981V79.9758H213.281V66.6758Z" fill="#1B1010"/>
<path d="M199.981 39.9883H186.594V66.6758H199.981V39.9883Z" fill="#1B1010"/>
<path d="M186.594 79.9741H173.294V93.3616H186.594V79.9741Z" fill="#1B1010"/>
<path d="M186.594 26.688H173.294V39.988H186.594V26.688Z" fill="#1B1010"/>
<path d="M173.294 13.3003H146.606V26.6878H173.294V13.3003Z" fill="#1B1010"/>
<path d="M173.294 93.3618H146.606V106.662H173.294V93.3618Z" fill="#1B1010"/>
<path d="M146.606 119.962H133.306V133.349H146.606V119.962Z" fill="#1B1010"/>
<path d="M146.606 79.9741H133.306V93.3616H146.606V79.9741Z" fill="#1B1010"/>
<path d="M146.606 26.688H133.306V39.988H146.606V26.688Z" fill="#1B1010"/>
<path d="M133.306 13.3003H120.006V26.6878H133.306V13.3003Z" fill="#1B1010"/>
<path d="M106.619 53.376H93.3188V66.676H106.619V53.376Z" fill="#1B1010"/>
<path d="M120.006 0H79.9311V13.3H120.006V0Z" fill="#1B1010"/>
<path d="M93.3186 93.3618H79.9311V106.662H93.3186V93.3618Z" fill="#1B1010"/>
<path d="M93.3187 39.9883H66.6312V53.3758H93.3187V39.9883Z" fill="#1B1010"/>
<path d="M79.9312 13.3003H53.3312V26.6878H79.9312V13.3003Z" fill="#1B1010"/>
<path d="M66.6312 53.376H53.3312V66.676H66.6312V53.376Z" fill="#1B1010"/>
<path d="M53.3311 26.688H26.6436V39.988H53.3311V26.688Z" fill="#1B1010"/>
<path d="M39.9436 79.9741H26.6436V106.662H39.9436V79.9741Z" fill="#1B1010"/>
<path d="M26.6437 39.9883H13.3437V79.9758H26.6437V39.9883Z" fill="#1B1010"/>
</svg>
