<svg width="280" height="280" viewBox="0 0 280 280" fill="none" xmlns="http://www.w3.org/2000/svg">
<path d="M280 159.994H266.7V173.382H280V159.994Z" fill="#1B1010"/>
<path d="M266.7 146.694H240.012V159.994H266.7V146.694Z" fill="#1B1010"/>
<path d="M253.312 120.006H240.012V133.393H253.312V120.006Z" fill="#1B1010"/>
<path d="M200.025 133.394V106.707H186.725V93.319H173.338V66.719H186.725V53.3315H240.013V66.719H253.313V120.007H266.7V40.0315H253.313V26.644H240.013V13.344H186.725V26.644H173.338V40.0315H160.038V80.019H120.05V40.0315H106.663V26.644H93.3628V13.344H39.9878V26.644H26.6878V40.0315H13.3878V120.007H26.6878V66.719H39.9878V53.3315H93.3628V66.719H106.663V93.319H93.3628V106.707H80.0628V133.394H39.9878V146.694H80.0628V199.982H93.3628V133.394H106.663V120.007H173.338V133.394H186.725V199.982H200.025V146.694H240.013V133.394H200.025Z" fill="#1B1010"/>
<path d="M226.713 253.357H213.325V266.657H226.713V253.357Z" fill="#1B1010"/>
<path d="M213.325 240.057H200.025V253.357H213.325V240.057Z" fill="#1B1010"/>
<path d="M200.025 226.669H173.337V240.057H200.025V226.669Z" fill="#1B1010"/>
<path d="M186.725 199.981H173.337V213.369H186.725V199.981Z" fill="#1B1010"/>
<path d="M173.337 146.694H160.037V173.381H173.337V146.694Z" fill="#1B1010"/>
<path d="M173.338 213.369H106.663V226.669H173.338V213.369Z" fill="#1B1010"/>
<path d="M160.037 186.682H120.05V199.982H160.037V186.682Z" fill="#1B1010"/>
<path d="M120.05 146.694H106.663V173.381H120.05V146.694Z" fill="#1B1010"/>
<path d="M106.662 199.981H93.3624V213.369H106.662V199.981Z" fill="#1B1010"/>
<path d="M106.663 226.669H80.0627V240.057H106.663V226.669Z" fill="#1B1010"/>
<path d="M80.0624 240.057H66.6749V253.357H80.0624V240.057Z" fill="#1B1010"/>
<path d="M66.6748 253.357H53.3748V266.657H66.6748V253.357Z" fill="#1B1010"/>
<path d="M39.9874 120.006H26.6874V133.393H39.9874V120.006Z" fill="#1B1010"/>
<path d="M39.9878 146.694H13.3878V159.994H39.9878V146.694Z" fill="#1B1010"/>
<path d="M13.3875 159.994H0V173.382H13.3875V159.994Z" fill="#1B1010"/>
</svg>
