<svg width="280" height="280" viewBox="0 0 280 280" fill="none" xmlns="http://www.w3.org/2000/svg">
<g clip-path="url(#clip0_58_53)">
<path d="M280 213.325H266.612V266.7H280V213.325Z" fill="#1B1010"/>
<path d="M280 106.662H266.612V160.037H280V106.662Z" fill="#1B1010"/>
<path d="M266.613 200.025H253.313V213.325H266.613V200.025Z" fill="#1B1010"/>
<path d="M266.613 160.038H253.313V173.338H266.613V160.038Z" fill="#1B1010"/>
<path d="M213.325 266.7V226.625H199.938V266.7H13.3002V280H266.613V266.7H213.325Z" fill="#1B1010"/>
<path d="M253.312 173.338H239.925V200.026H253.312V173.338Z" fill="#1B1010"/>
<path d="M239.925 26.688H226.625V53.3755H239.925V26.688Z" fill="#1B1010"/>
<path d="M226.625 53.3748H213.325V79.9748H226.625V53.3748Z" fill="#1B1010"/>
<path d="M226.625 13.3002H213.325V26.6877H226.625V13.3002Z" fill="#1B1010"/>
<path d="M213.325 173.338H199.937V200.026H213.325V173.338Z" fill="#1B1010"/>
<path d="M213.325 0H186.638V13.3H213.325V0Z" fill="#1B1010"/>
<path d="M186.638 13.3002H159.95V26.6877H186.638V13.3002Z" fill="#1B1010"/>
<path d="M173.25 146.65H66.5874V160.038H119.962V173.338H106.662V186.638H93.2749V200.025H79.9749V213.325H66.5874V226.625H173.25V213.325H186.637V160.038H173.25V146.65Z" fill="#1B1010"/>
<path d="M173.25 53.3748H159.95V79.9748H173.25V53.3748Z" fill="#1B1010"/>
<path d="M146.65 53.3755H159.95V26.688H133.262V39.988H146.65V53.3755Z" fill="#1B1010"/>
<path d="M133.263 39.9871H106.663V53.3746H133.263V39.9871Z" fill="#1B1010"/>
<path d="M106.663 53.3748H79.9751V66.6748H106.663V53.3748Z" fill="#1B1010"/>
<path d="M79.9752 66.6749H53.2877V79.9749H79.9752V66.6749Z" fill="#1B1010"/>
<path d="M66.5877 160.038H53.2877V213.325H66.5877V160.038Z" fill="#1B1010"/>
<path d="M39.9873 173.338H26.5998V200.026H39.9873V173.338Z" fill="#1B1010"/>
<path d="M199.938 106.662V146.65H213.325V106.662H266.613V93.3624H239.925V79.9749H226.625V93.3624H186.638V79.9749H173.25V93.3624H146.65V66.6749H119.963V79.9749H93.2752V93.3624H53.2877V79.9749H26.6002V93.3624H13.3002V106.662H199.938Z" fill="#1B1010"/>
<path d="M26.6002 200.025H13.3002V213.325H26.6002V200.025Z" fill="#1B1010"/>
<path d="M26.6002 160.038H13.3002V173.338H26.6002V160.038Z" fill="#1B1010"/>
<path d="M13.3 213.325H0V266.7H13.3V213.325Z" fill="#1B1010"/>
<path d="M13.3 106.662H0V160.037H13.3V106.662Z" fill="#1B1010"/>
</g>
<defs>
<clipPath id="clip0_58_53">
<rect width="280" height="280" fill="white"/>
</clipPath>
</defs>
</svg>
