<svg width="280" height="280" viewBox="0 0 280 280" fill="none" xmlns="http://www.w3.org/2000/svg">
<g clip-path="url(#clip0_58_117)">
<path d="M253.75 106.75V133H226.625V147H253.75V173.25H266.875V119.875H280V106.75H253.75Z" fill="#1B1010"/>
<path d="M252.875 173.25H239.75V186.375H252.875V173.25Z" fill="#1B1010"/>
<path d="M239.75 26.25H226.625V105.875H239.75V26.25Z" fill="#1B1010"/>
<path d="M40.2498 186.375V200.375H66.4998V213.5H79.6248V200.375H199.5V213.5H213.5V200.375H239.75V186.375H40.2498Z" fill="#1B1010"/>
<path d="M212.625 266.875H186.375V280H212.625V266.875Z" fill="#1B1010"/>
<path d="M199.5 213.5H173.25V226.625H199.5V213.5Z" fill="#1B1010"/>
<path d="M187.25 252.875H160.125V266H187.25V252.875Z" fill="#1B1010"/>
<path d="M147 226.625V239.75H133V226.625H106.75V239.75H119.875V252.875H160.125V239.75H173.25V226.625H147Z" fill="#1B1010"/>
<path d="M119.875 93.6248H133V79.6248H147V93.6248H160.125V66.4998H173.25V53.3748H147V40.2498H133V53.3748H106.75V66.4998H119.875V93.6248Z" fill="#1B1010"/>
<path d="M120.75 252.875H93.6251V266H120.75V252.875Z" fill="#1B1010"/>
<path d="M105.875 213.5H79.6248V226.625H105.875V213.5Z" fill="#1B1010"/>
<path d="M92.7498 266.875H66.4998V280H92.7498V266.875Z" fill="#1B1010"/>
<path d="M226.625 26.25V13.125H199.5V0H186.375V13.125H93.6248V0H79.6248V13.125H53.3748V26.25H226.625Z" fill="#1B1010"/>
<path d="M226.625 160.125V147H200.375V120.75H226.625V107.625H53.3748V120.75H80.4998V147H53.3748V160.125H226.625ZM93.6248 119.875H187.25V146.125H93.6248V119.875Z" fill="#1B1010"/>
<path d="M53.3748 26.25H40.2498V105.875H53.3748V26.25Z" fill="#1B1010"/>
<path d="M39.375 173.25H26.25V186.375H39.375V173.25Z" fill="#1B1010"/>
<path d="M26.25 147H53.375V133H26.25V106.75H0V119.875H13.125V173.25H26.25V147Z" fill="#1B1010"/>
</g>
<defs>
<clipPath id="clip0_58_117">
<rect width="280" height="280" fill="white"/>
</clipPath>
</defs>
</svg>
