<svg width="280" height="280" viewBox="0 0 280 280" fill="none" xmlns="http://www.w3.org/2000/svg">
<g clip-path="url(#clip0_58_148)">
<path d="M280 106.663H266.613V173.338H280V106.663Z" fill="#1B1010"/>
<path d="M266.612 173.337H253.312V200.025H266.612V173.337Z" fill="#1B1010"/>
<path d="M266.612 79.9753H253.312V106.663H266.612V79.9753Z" fill="#1B1010"/>
<path d="M253.312 200.025H240.012V226.625H253.312V200.025Z" fill="#1B1010"/>
<path d="M253.312 53.375H240.012V79.975H253.312V53.375Z" fill="#1B1010"/>
<path d="M240.012 226.625H226.625V240.013H240.012V226.625Z" fill="#1B1010"/>
<path d="M240.012 39.9878H226.625V53.3753H240.012V39.9878Z" fill="#1B1010"/>
<path d="M226.625 240.012H199.938V253.312H226.625V240.012Z" fill="#1B1010"/>
<path d="M226.625 26.6875H199.938V39.9875H226.625V26.6875Z" fill="#1B1010"/>
<path d="M119.963 160.038H133.35V173.338H146.65V160.038H159.95V146.65H213.325V133.35H159.95V119.963H146.65V39.9878H133.35V119.963H119.963V133.35H106.663V146.65H119.963V160.038Z" fill="#1B1010"/>
<path d="M199.938 253.313H173.338V266.7H199.938V253.313Z" fill="#1B1010"/>
<path d="M199.938 13.3H173.338V26.6875H199.938V13.3Z" fill="#1B1010"/>
<path d="M173.338 266.7H106.663V280H173.338V266.7Z" fill="#1B1010"/>
<path d="M173.338 0H106.663V13.3H173.338V0Z" fill="#1B1010"/>
<path d="M106.663 253.313H79.975V266.7H106.663V253.313Z" fill="#1B1010"/>
<path d="M106.663 13.3H79.975V26.6875H106.663V13.3Z" fill="#1B1010"/>
<path d="M79.975 240.012H53.2875V253.312H79.975V240.012Z" fill="#1B1010"/>
<path d="M79.975 26.6875H53.2875V39.9875H79.975V26.6875Z" fill="#1B1010"/>
<path d="M53.2875 226.625H39.9875V240.013H53.2875V226.625Z" fill="#1B1010"/>
<path d="M53.2875 39.9878H39.9875V53.3753H53.2875V39.9878Z" fill="#1B1010"/>
<path d="M39.9875 200.025H26.6875V226.625H39.9875V200.025Z" fill="#1B1010"/>
<path d="M39.9875 53.375H26.6875V79.975H39.9875V53.375Z" fill="#1B1010"/>
<path d="M26.6875 173.337H13.3V200.025H26.6875V173.337Z" fill="#1B1010"/>
<path d="M26.6875 79.9753H13.3V106.663H26.6875V79.9753Z" fill="#1B1010"/>
<path d="M13.3 106.663H0V173.338H13.3V106.663Z" fill="#1B1010"/>
</g>
<defs>
<clipPath id="clip0_58_148">
<rect width="280" height="280" fill="white"/>
</clipPath>
</defs>
</svg>
