<svg width="280" height="280" viewBox="0 0 280 280" fill="none" xmlns="http://www.w3.org/2000/svg">
<path d="M20.0375 79.975H259.963V266.7H273.35V39.9875H259.963V26.6875H219.975V53.375H206.675V26.6875H73.325V53.375H60.025V26.6875H20.0375V39.9875H6.65002V266.7H20.0375V79.975Z" fill="#1B1010"/>
<path d="M259.962 266.699H20.0374V279.999H259.962V266.699Z" fill="#1B1010"/>
<path d="M219.975 0H206.675V26.6875H219.975V0Z" fill="#1B1010"/>
<path d="M153.3 133.35V186.637H193.287V213.325H153.3V226.625H206.675V173.337H166.687V146.65H206.675V133.35H153.3Z" fill="#1B1010"/>
<path d="M113.313 133.35H100.013V146.65H73.3251V160.037H100.013V213.325H73.3251V226.625H140V213.325H113.313V133.35Z" fill="#1B1010"/>
<path d="M73.325 0H60.025V26.6875H73.325V0Z" fill="#1B1010"/>
</svg>
